<svg width="91" height="9" viewBox="0 0 91 9" fill="none" xmlns="http://www.w3.org/2000/svg">
<path d="M0.593262 6.39423L1.59326 5.69576L2.59326 4.95275L3.59326 4.2114L4.59326 3.51778L5.59326 2.91504L6.59326 2.44065L7.59326 2.12409L8.59326 1.98506L9.59326 2.0322L10.5933 2.26257L11.5933 2.66186L12.5933 3.20524L13.5933 3.85891L14.5933 4.58225L15.5933 5.33028L16.5933 6.05648L17.5933 6.71571L18.5933 7.26698L19.5933 7.67602L20.5933 7.91738L21.5933 7.97607L22.5933 7.84844L23.5933 7.54241L24.5933 7.07703L25.5933 6.48122L26.5933 5.79203L27.5933 5.0523L28.5933 4.30804L29.5933 3.60552L30.5933 2.98841L31.5933 2.49508L32.5933 2.15621L33.5933 1.99287L34.5933 2.01521L35.5933 2.22185L36.5933 2.59993L37.5933 3.12594L38.5933 3.7672L39.5933 4.48381L40.5933 5.23123L41.5933 5.96299L42.5933 6.63359L43.5933 7.20133L44.5933 7.63092L45.5933 7.89564L46.5933 7.97904L47.5933 7.87594L48.5933 7.59273L49.5933 7.14703L50.5933 6.56656L51.5933 5.88739L52.5933 5.15177L53.5933 4.40543L54.5933 3.69476L55.5933 3.06396L56.5933 2.55225L57.5933 2.19144L58.5933 2.00397L59.5933 2.00149L60.5933 2.18416L61.5933 2.54061L62.5933 3.04869L63.5933 3.67681L64.5933 4.38591L65.5933 5.13191L66.5933 5.86841L67.5933 6.54964L68.5933 7.13323L69.5933 7.5829L70.5933 7.87069L71.5933 7.97871L72.5933 7.90025L73.5933 7.64017L74.5933 7.21465L75.5933 6.65015L76.5933 5.98176L77.5933 5.25105L78.5933 4.50344L79.5933 3.78542L80.5933 3.14163L81.5933 2.6121L82.5933 2.22974L83.5933 2.01835L84.5933 1.99105L85.5933 2.14955L86.5933 2.48398L87.5933 2.97357L88.5933 3.58786L89.5933 4.28867L90.5933 5.03241L91.5933 5.77286L92.5933 6.46396L93.5933 7.06276L94.5933 7.53202L95.5933 7.84256L96.5933 7.97508L97.5933 7.92134L98.5933 7.68467L99.5933 7.2798L100.593 6.7319L101.593 6.07503L102.593 5.35003L103.593 4.60198L104.593 3.87739L105.593 3.22132L106.593 2.67454L107.593 2.27107L108.593 2.03598L109.593 1.9839L110.593 2.11805L111.593 2.4301L112.593 2.90065L113.593 3.50044L114.593 4.19218L115.593 4.93286L116.593 5.67643L117.593 6.37665L118.593 6.99L119.593 7.47832L120.593 7.81128L121.593 7.96815L122.593 7.93919L123.593 7.7262L124.593 7.34242L125.593 6.81172L126.593 6.16708L127.593 5.4486L128.593 4.70093L129.593 3.97058L130.593 3.30294L131.593 2.73953L132.593 2.31538L133.593 2.05686L134.593 1.98004L135.593 2.08971L136.593 2.37903L137.593 2.83003L138.593 3.41466L139.593 4.09657L140.593 4.83336L141.593 5.57923L142.593 6.2878L143.593 6.91502L144.593 7.42188L145.593 7.77687L146.593 7.95793L147.593 7.95379L148.593 7.76471L149.593 7.40244L150.593 6.88952L151.593 6.25783L152.593 5.54665L153.593 4.8002L154.593 4.06488L155.593 3.38641L156.593 2.80699L157.593 2.36262L158.593 2.08096L159.593 1.97949L160.593 2.06454L161.593 2.33082L162.593 2.76177L163.593 3.33059L164.593 4.00192L165.593 4.73402L166.593 5.48138L167.593 6.19751L168.593 6.83791L169.593 7.36274L170.593 7.73939L171.593 7.94442L172.593 7.9651L173.593 7.80014L174.593 7.45979L175.593 6.96522L176.593 6.34718L177.593 5.64408L178.593 4.89965L179.593 4.16018L180.593 3.47164L181.593 2.87683L182.593 2.41275L183.593 2.10824L184.593 1.98224L185.593 2.04259L186.593 2.28553L187.593 2.69595L188.593 3.24834L189.593 3.90835L190.593 4.63495L191.593 5.38297L192.593 6.10588L193.593 6.75875L194.593 7.30098L195.593 7.69886L196.593 7.92766L197.593 7.97313L198.593 7.83247L199.593 7.51441L200.593 7.03873" stroke="#CCCCCC" stroke-width="2" stroke-linecap="round"/>
</svg>
